PathFileType	4	(X/Y/Z)	..\data\2014001\dynamic\2014001_C4_04.trc
DataRate	CameraRate	NumFrames	NumMarkers	Units	OrigDataRate	OrigDataStartFrame	OrigNumFrames
100.000000	100.000000	4	52	mm	100.000000	77	155
Frame#	Time	L_IAS			L_IPS			R_IPS			R_IAS			L_FTC			L_FLE			L_FME			L_FAX			L_TTC			L_FAL			L_TAM			L_FCC			L_FM1			L_FM2			L_FM5			R_FTC			R_FLE			R_FME			R_FAX			R_TTC			R_FAL			R_TAM			R_FCC			R_FM1			R_FM2			R_FM5			CV7			TV10			SXS			SJN			L_SIA			L_SRS			L_SAA			L_SAE			L_HLE			L_HME			L_UOA			L_RSP			L_UHE			L_HM2			L_HM5			R_SIA			R_SRS			R_SAA			R_SAE			R_HLE			R_HME			R_UOA			R_RSP			R_UHE			R_HM2			R_HM5			
		X1	Y1	Z1	X2	Y2	Z2	X3	Y3	Z3	X4	Y4	Z4	X5	Y5	Z5	X6	Y6	Z6	X7	Y7	Z7	X8	Y8	Z8	X9	Y9	Z9	X10	Y10	Z10	X11	Y11	Z11	X12	Y12	Z12	X13	Y13	Z13	X14	Y14	Z14	X15	Y15	Z15	X16	Y16	Z16	X17	Y17	Z17	X18	Y18	Z18	X19	Y19	Z19	X20	Y20	Z20	X21	Y21	Z21	X22	Y22	Z22	X23	Y23	Z23	X24	Y24	Z24	X25	Y25	Z25	X26	Y26	Z26	X27	Y27	Z27	X28	Y28	Z28	X29	Y29	Z29	X30	Y30	Z30	X31	Y31	Z31	X32	Y32	Z32	X33	Y33	Z33	X34	Y34	Z34	X35	Y35	Z35	X36	Y36	Z36	X37	Y37	Z37	X38	Y38	Z38	X39	Y39	Z39	X40	Y40	Z40	X41	Y41	Z41	X42	Y42	Z42	X43	Y43	Z43	X44	Y44	Z44	X45	Y45	Z45	X46	Y46	Z46	X47	Y47	Z47	X48	Y48	Z48	X49	Y49	Z49	X50	Y50	Z50	X51	Y51	Z51	X52	Y52	Z52	

78	0.77	926.9512329101565	883.415466308594	-433.9149780273439	748.6125488281251	926.276062011719	-365.6217041015626	743.1952514648439	923.1842041015627	-274.9458312988282	918.0998535156252	889.509704589844	-194.9160766601563	852.6804199218752	797.1392211914065	-489.8846435546876	861.8110961914065	440.0925598144532	-441.4226074218751	880.607849121094	438.5963439941407	-325.8223876953126	839.910339355469	379.0868835449219	-442.7000122070314	898.271179199219	358.3863525390626	-392.8609008789064	785.532409667969	65.03223419189455	-385.5315856933595	808.9409179687502	76.52465820312501	-297.9740600585938	740.6699218750001	28.06881141662598	-339.5499572753907	922.2915649414065	27.4538688659668	-316.6533508300782	929.8554687500002	36.0766944885254	-379.4582519531251	874.0772094726565	24.74793815612794	-423.6538391113282	823.467956542969	794.2524414062502	-139.518310546875	906.7674560546877	454.052947998047	-136.9933319091797	950.0523681640627	430.0686340332032	-250.5175476074219	865.5017700195315	409.3992919921876	-138.3156280517578	928.552185058594	366.3919982910157	-169.4820098876953	665.7603149414064	176.0482635498047	-204.4136810302735	724.5045776367189	154.683837890625	-273.2582092285157	625.6891479492189	160.3275604248047	-273.3092651367188	760.9260864257814	45.5296974182129	-226.5559844970704	750.8624267578126	64.6890335083008	-171.1933746337891	693.2285156250001	86.43972015380861	-151.0364074707032	767.8605957031251	1387.40625	-313.5539550781251	716.7542724609376	1151.421875	-321.7543640136719	949.1854248046877	1169.712768554688	-322.8849487304688	897.3501586914065	1331.200317382813	-318.6647033691407	712.7882690429689	1193.865600585938	-417.003387451172	727.3843383789064	1324.398193359375	-405.6689758300782	805.1983032226565	1325.581176757813	-513.6712646484376	844.217712402344	1338.639404296875	-497.0193786621095	840.1831665039065	1052.621948242188	-574.3409423828126	807.725036621094	1019.279663085938	-501.1354980468751	808.759216308594	1016.056579589844	-551.5567626953126	956.6177978515627	833.566833496094	-522.4661254882814	918.2623291015627	825.8215942382815	-593.9628295898439	996.9597167968752	755.8663330078126	-529.0406494140626	922.8715820312502	748.7526855468751	-598.4066772460939	709.2332153320314	1193.604125976563	-206.6779937744141	729.4557495117189	1317.24365234375	-227.1859893798829	806.2786254882815	1318.252197265625	-124.6752166748047	854.4387817382815	1325.5078125	-136.6383666992188	820.882019042969	1023.722045898438	-62.89335250854494	792.031677246094	1006.236267089844	-137.8185424804688	790.0408325195315	999.9860839843752	-91.45657348632814	919.2526855468752	815.9704589843752	-95.01889038085939	873.1809082031252	816.3797607421877	-28.0733757019043	947.9897460937502	725.2248535156251	-81.82385253906251	862.7355957031252	737.2169189453126	-24.88804817199708	
79	0.78	939.383239746094	883.5999145507815	-435.2182006835939	761.6728515625001	927.121765136719	-365.7239074707032	756.9669799804689	924.3396606445315	-275.0060424804688	932.066101074219	891.5776977539065	-196.2870788574219	863.8591918945315	797.3779296875002	-490.0640258789064	864.836364746094	440.5506896972657	-441.3854980468751	884.1975708007815	438.6127014160157	-326.1138610839844	842.1346435546877	379.8887329101563	-442.6176757812501	900.4185791015627	358.5764770507813	-393.0507202148439	785.9846801757815	65.86120605468751	-385.1655273437501	809.6876220703127	77.26983642578126	-297.7976379394532	741.0615234375001	29.38477134704591	-339.0392761230469	922.6697387695315	27.34470748901368	-316.8277282714844	930.170104980469	35.88321685791016	-379.5299987792969	874.119323730469	24.70293045043946	-423.5343322753907	838.569519042969	796.1735839843752	-139.4324493408203	929.170349121094	457.3096923828126	-137.7693176269532	972.9263305664065	434.7942199707032	-250.9670562744141	889.627380371094	410.5733642578126	-139.0364990234375	954.773864746094	370.5951232910157	-169.9149475097657	703.3287963867189	164.6655578613282	-203.1700744628907	763.3482666015626	146.4517974853516	-271.9309692382813	663.6011962890626	145.1920623779297	-271.7570800781251	807.926696777344	41.40980911254884	-223.9173431396485	796.7127075195315	60.93428039550783	-168.8555297851563	737.6054687500001	78.09736633300783	-148.8172454833985	781.8612060546877	1388.506713867188	-313.7680358886719	730.4470825195314	1152.64453125	-322.7020568847657	962.9498291015627	1170.598022460938	-323.0716857910157	911.3278808593752	1332.2333984375	-318.4064636230469	726.8276367187501	1195.800048828125	-418.5741271972657	741.7368164062501	1325.88818359375	-406.4165039062501	820.4693603515627	1327.712158203125	-513.9606933593751	859.2958984375002	1340.610961914063	-496.776336669922	858.5159301757815	1054.897827148438	-575.2752075195314	825.4436035156252	1020.904052734375	-502.6039428710939	827.4898071289065	1017.310119628906	-553.1866455078126	980.4273071289065	839.4348754882815	-519.4957885742189	943.591003417969	829.7959594726565	-591.4763793945314	1023.679077148438	763.2650756835939	-524.5825195312501	950.8198852539065	752.8956298828126	-595.1607055664064	722.2976684570314	1194.843994140625	-207.8586578369141	743.1483154296876	1318.12646484375	-227.8678588867188	819.294128417969	1319.059448242188	-124.936882019043	867.735290527344	1326.014038085938	-136.3983612060547	830.250183105469	1024.558837890625	-64.29310607910158	802.2432250976565	1007.549194335938	-139.7344207763672	799.5009765625002	1001.5068359375	-93.31225585937501	924.513366699219	814.9656372070315	-94.3798294067383	877.8387451171877	816.558776855469	-28.18146705627442	950.7215576171877	723.2045288085939	-80.69435882568361	865.3510742187502	737.6929931640626	-24.87313842773438	
80	0.79	951.731872558594	883.5112915039065	-436.4726867675782	774.6248779296877	927.6294555664065	-365.6242065429688	770.6370239257815	925.074401855469	-274.8865051269532	945.985534667969	893.2196044921877	-197.600814819336	874.9031982421877	797.4794921875002	-490.2009277343751	868.0114746093752	441.0419921875001	-441.2901306152345	887.9530029296877	438.5997009277345	-326.3691711425782	844.4663085937502	380.7448120117188	-442.4764099121095	902.690124511719	358.7912597656251	-393.2452392578126	786.4495239257815	66.7921829223633	-384.7655334472657	810.4978637695315	78.12842559814455	-297.6190490722657	741.4494018554689	30.81299781799317	-338.4767761230469	923.0484619140627	27.28143501281739	-316.9770812988282	930.4776000976565	35.74767303466798	-379.5714416503907	874.1389160156252	24.71097564697266	-423.375213623047	853.7178955078127	797.611022949219	-139.3040466308594	950.952575683594	460.0751037597657	-138.7613983154297	994.934997558594	439.1067199707032	-251.7000122070313	913.350036621094	411.1078186035157	-139.8406066894532	980.4593505859377	374.5095214843751	-170.6914672851563	741.9569702148439	152.8959350585938	-201.6594238281251	803.044616699219	138.038314819336	-270.5245971679688	702.8488769531251	129.68017578125	-269.8701477050782	855.5125122070315	37.7265739440918	-221.5528411865235	843.072937011719	57.32475662231447	-166.779769897461	782.8193359375002	69.74941253662111	-146.6505584716797	795.886657714844	1389.27294921875	-313.9456176757813	744.1111450195314	1153.547485351563	-323.5264282226563	976.7112426757815	1171.118286132813	-323.2303161621094	925.3337402343752	1332.873779296875	-318.1241455078126	740.8445434570314	1197.337158203125	-420.0240783691407	756.0825805664064	1327.014892578125	-407.1045532226564	835.7021484375002	1329.451416015625	-514.1929931640626	874.3405761718752	1342.187622070313	-496.5076904296876	876.825134277344	1056.84619140625	-576.2413330078126	843.2614746093752	1022.132263183594	-504.1304016113282	846.243591308594	1018.252075195313	-554.8488159179689	1004.08984375	845.2302246093752	-516.5772705078126	968.798278808594	833.698425292969	-588.9206542968751	1050.088500976563	770.611022949219	-520.0198974609376	978.586853027344	757.0321044921876	-591.7220458984376	735.3632202148439	1195.75634765625	-208.9860534667969	756.8799438476564	1318.693359375	-228.4944610595704	832.368347167969	1319.503540039063	-125.1704254150391	881.077819824219	1326.149780273438	-136.1375274658203	839.4989013671877	1025.081909179688	-65.59535217285158	812.4446411132815	1008.519775390625	-141.5803375244141	808.921081542969	1002.665771484375	-95.08436584472658	930.0729980468752	813.8948364257815	-93.54859924316408	882.4754028320315	816.4785156250002	-28.32247352600098	953.8787841796877	721.3098754882814	-79.2792205810547	868.164489746094	737.9272460937501	-25.05570220947266	
81	0.8	964.033630371094	883.140808105469	-437.6374511718751	787.494079589844	927.8154296875002	-365.3375854492188	784.2186279296877	925.3848876953127	-274.6051635742188	959.8433227539065	894.3792724609377	-198.8151397705079	885.8526611328127	797.4628906250002	-490.3045654296876	871.3303833007815	441.552215576172	-441.1548156738282	891.8817138671877	438.5321350097657	-326.6039733886719	846.9029541015627	381.6374816894532	-442.2894287109376	905.083435058594	359.0056762695313	-393.462371826172	786.9077758789065	67.81097412109376	-384.3417053222657	811.354187011719	79.08007812500001	-297.4478759765626	741.8212890625001	32.33576583862305	-337.8718872070313	923.4067993164065	27.26561737060548	-317.1074829101563	930.7498168945315	35.66295623779298	-379.5935974121094	874.1206054687502	24.75967597961426	-423.1856994628907	868.8693847656252	798.519714355469	-139.1497497558594	972.1152343750002	462.2627868652345	-139.9384155273438	1016.0478515625	442.8868103027345	-252.6984863281251	936.687683105469	410.9828491210939	-140.706039428711	1005.559020996094	378.0713195800782	-171.8035278320313	781.669128417969	141.0950622558594	-199.9065551757813	843.5419921875002	129.7567901611328	-269.0603637695313	743.4838256835939	114.194564819336	-267.6842651367188	903.5516357421877	34.77146530151368	-219.442367553711	889.8525390625002	54.17195892333986	-164.9356536865235	828.8262329101565	61.8033905029297	-144.5261688232422	809.9356079101565	1389.692016601563	-314.0878601074219	757.7548828125001	1154.1123046875	-324.2197265625001	990.4758300781252	1171.259521484375	-323.3504028320313	939.367858886719	1333.1083984375	-317.8143615722657	754.8737792968751	1198.438232421875	-421.3323364257814	770.4260253906252	1327.761474609375	-407.731170654297	850.8972167968752	1330.7646484375	-514.3705444335939	889.3533325195315	1343.341918945313	-496.2173461914064	895.114685058594	1058.4326171875	-577.2261962890626	861.1807861328127	1022.934143066406	-505.6997680664064	865.0210571289065	1018.851013183594	-556.5259399414064	1027.573486328125	850.896179199219	-513.7020263671876	993.8569946289065	837.4909667968752	-586.3046264648439	1076.157348632813	777.8552246093752	-515.3818969726564	1006.1484375	761.1237182617189	-588.1165771484376	748.4343872070314	1196.308837890625	-210.0599365234376	770.6426391601565	1318.92626953125	-229.0624389648438	845.4968261718752	1319.559814453125	-125.3715209960938	894.4560546875002	1325.904418945313	-135.8579864501953	848.6986083984377	1025.273803710938	-66.78328704833986	822.659362792969	1009.127197265625	-143.3109130859375	818.3482055664065	1003.448791503906	-96.7384948730469	935.9659423828127	812.7112426757815	-92.54740142822267	887.1481933593752	816.1070556640627	-28.48679924011231	957.4942626953127	719.4672851562501	-77.62442016601564	871.2149658203127	737.8664550781251	-25.42882537841798	
